<mxfile host="65bd71144e">
    <diagram name="Pagina-1" id="nNeZXxttTxYv_NtTUlQE">
        <mxGraphModel dx="1884" dy="851" grid="1" gridSize="10" guides="1" tooltips="1" connect="1" arrows="1" fold="1" page="1" pageScale="1" pageWidth="827" pageHeight="1169" math="0" shadow="0">
            <root>
                <mxCell id="0"/>
                <mxCell id="1" parent="0"/>
                <mxCell id="gnsaFU84-UCshkjR6OA1-2" value="departments" style="shape=table;startSize=30;container=1;collapsible=0;childLayout=tableLayout;strokeColor=default;fontSize=16;" parent="1" vertex="1">
                    <mxGeometry x="110" y="220" width="180" height="150" as="geometry"/>
                </mxCell>
                <mxCell id="gnsaFU84-UCshkjR6OA1-3" value="" style="shape=tableRow;horizontal=0;startSize=0;swimlaneHead=0;swimlaneBody=0;strokeColor=inherit;top=0;left=0;bottom=0;right=0;collapsible=0;dropTarget=0;fillColor=none;points=[[0,0.5],[1,0.5]];portConstraint=eastwest;fontSize=16;" parent="gnsaFU84-UCshkjR6OA1-2" vertex="1">
                    <mxGeometry y="30" width="180" height="40" as="geometry"/>
                </mxCell>
                <mxCell id="gnsaFU84-UCshkjR6OA1-4" value="id" style="shape=partialRectangle;html=1;whiteSpace=wrap;connectable=0;strokeColor=inherit;overflow=hidden;fillColor=none;top=0;left=0;bottom=0;right=0;pointerEvents=1;fontSize=16;" parent="gnsaFU84-UCshkjR6OA1-3" vertex="1">
                    <mxGeometry width="60" height="40" as="geometry">
                        <mxRectangle width="60" height="40" as="alternateBounds"/>
                    </mxGeometry>
                </mxCell>
                <mxCell id="gnsaFU84-UCshkjR6OA1-5" value="" style="shape=partialRectangle;html=1;whiteSpace=wrap;connectable=0;strokeColor=inherit;overflow=hidden;fillColor=none;top=0;left=0;bottom=0;right=0;pointerEvents=1;fontSize=16;" parent="gnsaFU84-UCshkjR6OA1-3" vertex="1">
                    <mxGeometry x="60" width="60" height="40" as="geometry">
                        <mxRectangle width="60" height="40" as="alternateBounds"/>
                    </mxGeometry>
                </mxCell>
                <mxCell id="gnsaFU84-UCshkjR6OA1-6" value="" style="shape=partialRectangle;html=1;whiteSpace=wrap;connectable=0;strokeColor=inherit;overflow=hidden;fillColor=none;top=0;left=0;bottom=0;right=0;pointerEvents=1;fontSize=16;" parent="gnsaFU84-UCshkjR6OA1-3" vertex="1">
                    <mxGeometry x="120" width="60" height="40" as="geometry">
                        <mxRectangle width="60" height="40" as="alternateBounds"/>
                    </mxGeometry>
                </mxCell>
                <mxCell id="gnsaFU84-UCshkjR6OA1-7" value="" style="shape=tableRow;horizontal=0;startSize=0;swimlaneHead=0;swimlaneBody=0;strokeColor=inherit;top=0;left=0;bottom=0;right=0;collapsible=0;dropTarget=0;fillColor=none;points=[[0,0.5],[1,0.5]];portConstraint=eastwest;fontSize=16;" parent="gnsaFU84-UCshkjR6OA1-2" vertex="1">
                    <mxGeometry y="70" width="180" height="40" as="geometry"/>
                </mxCell>
                <mxCell id="gnsaFU84-UCshkjR6OA1-8" value="name" style="shape=partialRectangle;html=1;whiteSpace=wrap;connectable=0;strokeColor=inherit;overflow=hidden;fillColor=none;top=0;left=0;bottom=0;right=0;pointerEvents=1;fontSize=16;" parent="gnsaFU84-UCshkjR6OA1-7" vertex="1">
                    <mxGeometry width="60" height="40" as="geometry">
                        <mxRectangle width="60" height="40" as="alternateBounds"/>
                    </mxGeometry>
                </mxCell>
                <mxCell id="gnsaFU84-UCshkjR6OA1-9" value="" style="shape=partialRectangle;html=1;whiteSpace=wrap;connectable=0;strokeColor=inherit;overflow=hidden;fillColor=none;top=0;left=0;bottom=0;right=0;pointerEvents=1;fontSize=16;" parent="gnsaFU84-UCshkjR6OA1-7" vertex="1">
                    <mxGeometry x="60" width="60" height="40" as="geometry">
                        <mxRectangle width="60" height="40" as="alternateBounds"/>
                    </mxGeometry>
                </mxCell>
                <mxCell id="gnsaFU84-UCshkjR6OA1-10" value="" style="shape=partialRectangle;html=1;whiteSpace=wrap;connectable=0;strokeColor=inherit;overflow=hidden;fillColor=none;top=0;left=0;bottom=0;right=0;pointerEvents=1;fontSize=16;" parent="gnsaFU84-UCshkjR6OA1-7" vertex="1">
                    <mxGeometry x="120" width="60" height="40" as="geometry">
                        <mxRectangle width="60" height="40" as="alternateBounds"/>
                    </mxGeometry>
                </mxCell>
                <mxCell id="gnsaFU84-UCshkjR6OA1-11" value="" style="shape=tableRow;horizontal=0;startSize=0;swimlaneHead=0;swimlaneBody=0;strokeColor=inherit;top=0;left=0;bottom=0;right=0;collapsible=0;dropTarget=0;fillColor=none;points=[[0,0.5],[1,0.5]];portConstraint=eastwest;fontSize=16;" parent="gnsaFU84-UCshkjR6OA1-2" vertex="1">
                    <mxGeometry y="110" width="180" height="40" as="geometry"/>
                </mxCell>
                <mxCell id="gnsaFU84-UCshkjR6OA1-12" value="" style="shape=partialRectangle;html=1;whiteSpace=wrap;connectable=0;strokeColor=inherit;overflow=hidden;fillColor=none;top=0;left=0;bottom=0;right=0;pointerEvents=1;fontSize=16;" parent="gnsaFU84-UCshkjR6OA1-11" vertex="1">
                    <mxGeometry width="60" height="40" as="geometry">
                        <mxRectangle width="60" height="40" as="alternateBounds"/>
                    </mxGeometry>
                </mxCell>
                <mxCell id="gnsaFU84-UCshkjR6OA1-13" value="" style="shape=partialRectangle;html=1;whiteSpace=wrap;connectable=0;strokeColor=inherit;overflow=hidden;fillColor=none;top=0;left=0;bottom=0;right=0;pointerEvents=1;fontSize=16;" parent="gnsaFU84-UCshkjR6OA1-11" vertex="1">
                    <mxGeometry x="60" width="60" height="40" as="geometry">
                        <mxRectangle width="60" height="40" as="alternateBounds"/>
                    </mxGeometry>
                </mxCell>
                <mxCell id="gnsaFU84-UCshkjR6OA1-14" value="" style="shape=partialRectangle;html=1;whiteSpace=wrap;connectable=0;strokeColor=inherit;overflow=hidden;fillColor=none;top=0;left=0;bottom=0;right=0;pointerEvents=1;fontSize=16;" parent="gnsaFU84-UCshkjR6OA1-11" vertex="1">
                    <mxGeometry x="120" width="60" height="40" as="geometry">
                        <mxRectangle width="60" height="40" as="alternateBounds"/>
                    </mxGeometry>
                </mxCell>
                <mxCell id="gnsaFU84-UCshkjR6OA1-15" value="degree_courses" style="shape=table;startSize=30;container=1;collapsible=0;childLayout=tableLayout;strokeColor=default;fontSize=16;" parent="1" vertex="1">
                    <mxGeometry x="110" y="450" width="190" height="150" as="geometry"/>
                </mxCell>
                <mxCell id="gnsaFU84-UCshkjR6OA1-16" value="" style="shape=tableRow;horizontal=0;startSize=0;swimlaneHead=0;swimlaneBody=0;strokeColor=inherit;top=0;left=0;bottom=0;right=0;collapsible=0;dropTarget=0;fillColor=none;points=[[0,0.5],[1,0.5]];portConstraint=eastwest;fontSize=16;" parent="gnsaFU84-UCshkjR6OA1-15" vertex="1">
                    <mxGeometry y="30" width="190" height="40" as="geometry"/>
                </mxCell>
                <mxCell id="gnsaFU84-UCshkjR6OA1-17" value="id" style="shape=partialRectangle;html=1;whiteSpace=wrap;connectable=0;strokeColor=inherit;overflow=hidden;fillColor=none;top=0;left=0;bottom=0;right=0;pointerEvents=1;fontSize=16;" parent="gnsaFU84-UCshkjR6OA1-16" vertex="1">
                    <mxGeometry width="148" height="40" as="geometry">
                        <mxRectangle width="148" height="40" as="alternateBounds"/>
                    </mxGeometry>
                </mxCell>
                <mxCell id="gnsaFU84-UCshkjR6OA1-18" value="" style="shape=partialRectangle;html=1;whiteSpace=wrap;connectable=0;strokeColor=inherit;overflow=hidden;fillColor=none;top=0;left=0;bottom=0;right=0;pointerEvents=1;fontSize=16;" parent="gnsaFU84-UCshkjR6OA1-16" vertex="1">
                    <mxGeometry x="148" width="21" height="40" as="geometry">
                        <mxRectangle width="21" height="40" as="alternateBounds"/>
                    </mxGeometry>
                </mxCell>
                <mxCell id="gnsaFU84-UCshkjR6OA1-19" value="" style="shape=partialRectangle;html=1;whiteSpace=wrap;connectable=0;strokeColor=inherit;overflow=hidden;fillColor=none;top=0;left=0;bottom=0;right=0;pointerEvents=1;fontSize=16;" parent="gnsaFU84-UCshkjR6OA1-16" vertex="1">
                    <mxGeometry x="169" width="21" height="40" as="geometry">
                        <mxRectangle width="21" height="40" as="alternateBounds"/>
                    </mxGeometry>
                </mxCell>
                <mxCell id="gnsaFU84-UCshkjR6OA1-20" value="" style="shape=tableRow;horizontal=0;startSize=0;swimlaneHead=0;swimlaneBody=0;strokeColor=inherit;top=0;left=0;bottom=0;right=0;collapsible=0;dropTarget=0;fillColor=none;points=[[0,0.5],[1,0.5]];portConstraint=eastwest;fontSize=16;" parent="gnsaFU84-UCshkjR6OA1-15" vertex="1">
                    <mxGeometry y="70" width="190" height="40" as="geometry"/>
                </mxCell>
                <mxCell id="gnsaFU84-UCshkjR6OA1-21" value="name" style="shape=partialRectangle;html=1;whiteSpace=wrap;connectable=0;strokeColor=inherit;overflow=hidden;fillColor=none;top=0;left=0;bottom=0;right=0;pointerEvents=1;fontSize=16;" parent="gnsaFU84-UCshkjR6OA1-20" vertex="1">
                    <mxGeometry width="148" height="40" as="geometry">
                        <mxRectangle width="148" height="40" as="alternateBounds"/>
                    </mxGeometry>
                </mxCell>
                <mxCell id="gnsaFU84-UCshkjR6OA1-22" value="" style="shape=partialRectangle;html=1;whiteSpace=wrap;connectable=0;strokeColor=inherit;overflow=hidden;fillColor=none;top=0;left=0;bottom=0;right=0;pointerEvents=1;fontSize=16;" parent="gnsaFU84-UCshkjR6OA1-20" vertex="1">
                    <mxGeometry x="148" width="21" height="40" as="geometry">
                        <mxRectangle width="21" height="40" as="alternateBounds"/>
                    </mxGeometry>
                </mxCell>
                <mxCell id="gnsaFU84-UCshkjR6OA1-23" value="" style="shape=partialRectangle;html=1;whiteSpace=wrap;connectable=0;strokeColor=inherit;overflow=hidden;fillColor=none;top=0;left=0;bottom=0;right=0;pointerEvents=1;fontSize=16;" parent="gnsaFU84-UCshkjR6OA1-20" vertex="1">
                    <mxGeometry x="169" width="21" height="40" as="geometry">
                        <mxRectangle width="21" height="40" as="alternateBounds"/>
                    </mxGeometry>
                </mxCell>
                <mxCell id="gnsaFU84-UCshkjR6OA1-24" value="" style="shape=tableRow;horizontal=0;startSize=0;swimlaneHead=0;swimlaneBody=0;strokeColor=inherit;top=0;left=0;bottom=0;right=0;collapsible=0;dropTarget=0;fillColor=none;points=[[0,0.5],[1,0.5]];portConstraint=eastwest;fontSize=16;" parent="gnsaFU84-UCshkjR6OA1-15" vertex="1">
                    <mxGeometry y="110" width="190" height="40" as="geometry"/>
                </mxCell>
                <mxCell id="gnsaFU84-UCshkjR6OA1-25" value="department_id" style="shape=partialRectangle;html=1;whiteSpace=wrap;connectable=0;strokeColor=inherit;overflow=hidden;fillColor=none;top=0;left=0;bottom=0;right=0;pointerEvents=1;fontSize=16;" parent="gnsaFU84-UCshkjR6OA1-24" vertex="1">
                    <mxGeometry width="148" height="40" as="geometry">
                        <mxRectangle width="148" height="40" as="alternateBounds"/>
                    </mxGeometry>
                </mxCell>
                <mxCell id="gnsaFU84-UCshkjR6OA1-26" value="" style="shape=partialRectangle;html=1;whiteSpace=wrap;connectable=0;strokeColor=inherit;overflow=hidden;fillColor=none;top=0;left=0;bottom=0;right=0;pointerEvents=1;fontSize=16;" parent="gnsaFU84-UCshkjR6OA1-24" vertex="1">
                    <mxGeometry x="148" width="21" height="40" as="geometry">
                        <mxRectangle width="21" height="40" as="alternateBounds"/>
                    </mxGeometry>
                </mxCell>
                <mxCell id="gnsaFU84-UCshkjR6OA1-27" value="" style="shape=partialRectangle;html=1;whiteSpace=wrap;connectable=0;strokeColor=inherit;overflow=hidden;fillColor=none;top=0;left=0;bottom=0;right=0;pointerEvents=1;fontSize=16;" parent="gnsaFU84-UCshkjR6OA1-24" vertex="1">
                    <mxGeometry x="169" width="21" height="40" as="geometry">
                        <mxRectangle width="21" height="40" as="alternateBounds"/>
                    </mxGeometry>
                </mxCell>
                <mxCell id="gnsaFU84-UCshkjR6OA1-31" value="courses" style="shape=table;startSize=30;container=1;collapsible=0;childLayout=tableLayout;strokeColor=default;fontSize=16;" parent="1" vertex="1">
                    <mxGeometry x="120" y="710" width="180" height="150" as="geometry"/>
                </mxCell>
                <mxCell id="gnsaFU84-UCshkjR6OA1-32" value="" style="shape=tableRow;horizontal=0;startSize=0;swimlaneHead=0;swimlaneBody=0;strokeColor=inherit;top=0;left=0;bottom=0;right=0;collapsible=0;dropTarget=0;fillColor=none;points=[[0,0.5],[1,0.5]];portConstraint=eastwest;fontSize=16;" parent="gnsaFU84-UCshkjR6OA1-31" vertex="1">
                    <mxGeometry y="30" width="180" height="40" as="geometry"/>
                </mxCell>
                <mxCell id="gnsaFU84-UCshkjR6OA1-33" value="id" style="shape=partialRectangle;html=1;whiteSpace=wrap;connectable=0;strokeColor=inherit;overflow=hidden;fillColor=none;top=0;left=0;bottom=0;right=0;pointerEvents=1;fontSize=16;" parent="gnsaFU84-UCshkjR6OA1-32" vertex="1">
                    <mxGeometry width="140" height="40" as="geometry">
                        <mxRectangle width="140" height="40" as="alternateBounds"/>
                    </mxGeometry>
                </mxCell>
                <mxCell id="gnsaFU84-UCshkjR6OA1-34" value="" style="shape=partialRectangle;html=1;whiteSpace=wrap;connectable=0;strokeColor=inherit;overflow=hidden;fillColor=none;top=0;left=0;bottom=0;right=0;pointerEvents=1;fontSize=16;" parent="gnsaFU84-UCshkjR6OA1-32" vertex="1">
                    <mxGeometry x="140" width="20" height="40" as="geometry">
                        <mxRectangle width="20" height="40" as="alternateBounds"/>
                    </mxGeometry>
                </mxCell>
                <mxCell id="gnsaFU84-UCshkjR6OA1-35" value="" style="shape=partialRectangle;html=1;whiteSpace=wrap;connectable=0;strokeColor=inherit;overflow=hidden;fillColor=none;top=0;left=0;bottom=0;right=0;pointerEvents=1;fontSize=16;" parent="gnsaFU84-UCshkjR6OA1-32" vertex="1">
                    <mxGeometry x="160" width="20" height="40" as="geometry">
                        <mxRectangle width="20" height="40" as="alternateBounds"/>
                    </mxGeometry>
                </mxCell>
                <mxCell id="gnsaFU84-UCshkjR6OA1-36" value="" style="shape=tableRow;horizontal=0;startSize=0;swimlaneHead=0;swimlaneBody=0;strokeColor=inherit;top=0;left=0;bottom=0;right=0;collapsible=0;dropTarget=0;fillColor=none;points=[[0,0.5],[1,0.5]];portConstraint=eastwest;fontSize=16;" parent="gnsaFU84-UCshkjR6OA1-31" vertex="1">
                    <mxGeometry y="70" width="180" height="40" as="geometry"/>
                </mxCell>
                <mxCell id="gnsaFU84-UCshkjR6OA1-37" value="name" style="shape=partialRectangle;html=1;whiteSpace=wrap;connectable=0;strokeColor=inherit;overflow=hidden;fillColor=none;top=0;left=0;bottom=0;right=0;pointerEvents=1;fontSize=16;" parent="gnsaFU84-UCshkjR6OA1-36" vertex="1">
                    <mxGeometry width="140" height="40" as="geometry">
                        <mxRectangle width="140" height="40" as="alternateBounds"/>
                    </mxGeometry>
                </mxCell>
                <mxCell id="gnsaFU84-UCshkjR6OA1-38" value="" style="shape=partialRectangle;html=1;whiteSpace=wrap;connectable=0;strokeColor=inherit;overflow=hidden;fillColor=none;top=0;left=0;bottom=0;right=0;pointerEvents=1;fontSize=16;" parent="gnsaFU84-UCshkjR6OA1-36" vertex="1">
                    <mxGeometry x="140" width="20" height="40" as="geometry">
                        <mxRectangle width="20" height="40" as="alternateBounds"/>
                    </mxGeometry>
                </mxCell>
                <mxCell id="gnsaFU84-UCshkjR6OA1-39" value="" style="shape=partialRectangle;html=1;whiteSpace=wrap;connectable=0;strokeColor=inherit;overflow=hidden;fillColor=none;top=0;left=0;bottom=0;right=0;pointerEvents=1;fontSize=16;" parent="gnsaFU84-UCshkjR6OA1-36" vertex="1">
                    <mxGeometry x="160" width="20" height="40" as="geometry">
                        <mxRectangle width="20" height="40" as="alternateBounds"/>
                    </mxGeometry>
                </mxCell>
                <mxCell id="gnsaFU84-UCshkjR6OA1-40" value="" style="shape=tableRow;horizontal=0;startSize=0;swimlaneHead=0;swimlaneBody=0;strokeColor=inherit;top=0;left=0;bottom=0;right=0;collapsible=0;dropTarget=0;fillColor=none;points=[[0,0.5],[1,0.5]];portConstraint=eastwest;fontSize=16;" parent="gnsaFU84-UCshkjR6OA1-31" vertex="1">
                    <mxGeometry y="110" width="180" height="40" as="geometry"/>
                </mxCell>
                <mxCell id="gnsaFU84-UCshkjR6OA1-41" value="&lt;span style=&quot;text-wrap-mode: nowrap;&quot;&gt;degree_courses_id&lt;/span&gt;" style="shape=partialRectangle;html=1;whiteSpace=wrap;connectable=0;strokeColor=inherit;overflow=hidden;fillColor=none;top=0;left=0;bottom=0;right=0;pointerEvents=1;fontSize=16;" parent="gnsaFU84-UCshkjR6OA1-40" vertex="1">
                    <mxGeometry width="140" height="40" as="geometry">
                        <mxRectangle width="140" height="40" as="alternateBounds"/>
                    </mxGeometry>
                </mxCell>
                <mxCell id="gnsaFU84-UCshkjR6OA1-42" value="" style="shape=partialRectangle;html=1;whiteSpace=wrap;connectable=0;strokeColor=inherit;overflow=hidden;fillColor=none;top=0;left=0;bottom=0;right=0;pointerEvents=1;fontSize=16;" parent="gnsaFU84-UCshkjR6OA1-40" vertex="1">
                    <mxGeometry x="140" width="20" height="40" as="geometry">
                        <mxRectangle width="20" height="40" as="alternateBounds"/>
                    </mxGeometry>
                </mxCell>
                <mxCell id="gnsaFU84-UCshkjR6OA1-43" value="" style="shape=partialRectangle;html=1;whiteSpace=wrap;connectable=0;strokeColor=inherit;overflow=hidden;fillColor=none;top=0;left=0;bottom=0;right=0;pointerEvents=1;fontSize=16;" parent="gnsaFU84-UCshkjR6OA1-40" vertex="1">
                    <mxGeometry x="160" width="20" height="40" as="geometry">
                        <mxRectangle width="20" height="40" as="alternateBounds"/>
                    </mxGeometry>
                </mxCell>
                <mxCell id="gnsaFU84-UCshkjR6OA1-44" style="edgeStyle=orthogonalEdgeStyle;rounded=0;orthogonalLoop=1;jettySize=auto;html=1;entryX=0;entryY=0.5;entryDx=0;entryDy=0;strokeColor=light-dark(#AC6AFF,#9A2740);" parent="1" source="gnsaFU84-UCshkjR6OA1-24" target="gnsaFU84-UCshkjR6OA1-3" edge="1">
                    <mxGeometry relative="1" as="geometry">
                        <Array as="points">
                            <mxPoint x="20" y="580"/>
                            <mxPoint x="20" y="270"/>
                        </Array>
                    </mxGeometry>
                </mxCell>
                <mxCell id="gnsaFU84-UCshkjR6OA1-45" value="&lt;font style=&quot;font-size: 21px;&quot;&gt;1&lt;/font&gt;" style="edgeLabel;html=1;align=center;verticalAlign=middle;resizable=0;points=[];" parent="gnsaFU84-UCshkjR6OA1-44" connectable="0" vertex="1">
                    <mxGeometry x="0.7967" y="2" relative="1" as="geometry">
                        <mxPoint as="offset"/>
                    </mxGeometry>
                </mxCell>
                <mxCell id="gnsaFU84-UCshkjR6OA1-46" value="&lt;font style=&quot;font-size: 23px;&quot;&gt;N&lt;/font&gt;" style="edgeLabel;html=1;align=center;verticalAlign=middle;resizable=0;points=[];" parent="gnsaFU84-UCshkjR6OA1-44" connectable="0" vertex="1">
                    <mxGeometry x="-0.8906" y="2" relative="1" as="geometry">
                        <mxPoint as="offset"/>
                    </mxGeometry>
                </mxCell>
                <mxCell id="gnsaFU84-UCshkjR6OA1-48" style="edgeStyle=orthogonalEdgeStyle;rounded=0;orthogonalLoop=1;jettySize=auto;html=1;exitX=0;exitY=0.5;exitDx=0;exitDy=0;entryX=0;entryY=0.5;entryDx=0;entryDy=0;strokeColor=light-dark(#FF0ADC,#27A266);" parent="1" source="gnsaFU84-UCshkjR6OA1-128" target="gnsaFU84-UCshkjR6OA1-16" edge="1">
                    <mxGeometry relative="1" as="geometry">
                        <Array as="points">
                            <mxPoint x="30" y="500"/>
                        </Array>
                    </mxGeometry>
                </mxCell>
                <mxCell id="gnsaFU84-UCshkjR6OA1-49" value="&lt;font style=&quot;font-size: 22px;&quot;&gt;1&lt;/font&gt;" style="edgeLabel;html=1;align=center;verticalAlign=middle;resizable=0;points=[];" parent="gnsaFU84-UCshkjR6OA1-48" connectable="0" vertex="1">
                    <mxGeometry x="0.8478" y="1" relative="1" as="geometry">
                        <mxPoint as="offset"/>
                    </mxGeometry>
                </mxCell>
                <mxCell id="gnsaFU84-UCshkjR6OA1-52" value="teachers" style="shape=table;startSize=30;container=1;collapsible=0;childLayout=tableLayout;strokeColor=default;fontSize=16;" parent="1" vertex="1">
                    <mxGeometry x="110" y="930" width="180" height="150" as="geometry"/>
                </mxCell>
                <mxCell id="gnsaFU84-UCshkjR6OA1-53" value="" style="shape=tableRow;horizontal=0;startSize=0;swimlaneHead=0;swimlaneBody=0;strokeColor=inherit;top=0;left=0;bottom=0;right=0;collapsible=0;dropTarget=0;fillColor=none;points=[[0,0.5],[1,0.5]];portConstraint=eastwest;fontSize=16;" parent="gnsaFU84-UCshkjR6OA1-52" vertex="1">
                    <mxGeometry y="30" width="180" height="40" as="geometry"/>
                </mxCell>
                <mxCell id="gnsaFU84-UCshkjR6OA1-54" value="id" style="shape=partialRectangle;html=1;whiteSpace=wrap;connectable=0;strokeColor=inherit;overflow=hidden;fillColor=none;top=0;left=0;bottom=0;right=0;pointerEvents=1;fontSize=16;" parent="gnsaFU84-UCshkjR6OA1-53" vertex="1">
                    <mxGeometry width="140" height="40" as="geometry">
                        <mxRectangle width="140" height="40" as="alternateBounds"/>
                    </mxGeometry>
                </mxCell>
                <mxCell id="gnsaFU84-UCshkjR6OA1-55" value="" style="shape=partialRectangle;html=1;whiteSpace=wrap;connectable=0;strokeColor=inherit;overflow=hidden;fillColor=none;top=0;left=0;bottom=0;right=0;pointerEvents=1;fontSize=16;" parent="gnsaFU84-UCshkjR6OA1-53" vertex="1">
                    <mxGeometry x="140" width="20" height="40" as="geometry">
                        <mxRectangle width="20" height="40" as="alternateBounds"/>
                    </mxGeometry>
                </mxCell>
                <mxCell id="gnsaFU84-UCshkjR6OA1-56" value="" style="shape=partialRectangle;html=1;whiteSpace=wrap;connectable=0;strokeColor=inherit;overflow=hidden;fillColor=none;top=0;left=0;bottom=0;right=0;pointerEvents=1;fontSize=16;" parent="gnsaFU84-UCshkjR6OA1-53" vertex="1">
                    <mxGeometry x="160" width="20" height="40" as="geometry">
                        <mxRectangle width="20" height="40" as="alternateBounds"/>
                    </mxGeometry>
                </mxCell>
                <mxCell id="gnsaFU84-UCshkjR6OA1-57" value="" style="shape=tableRow;horizontal=0;startSize=0;swimlaneHead=0;swimlaneBody=0;strokeColor=inherit;top=0;left=0;bottom=0;right=0;collapsible=0;dropTarget=0;fillColor=none;points=[[0,0.5],[1,0.5]];portConstraint=eastwest;fontSize=16;" parent="gnsaFU84-UCshkjR6OA1-52" vertex="1">
                    <mxGeometry y="70" width="180" height="40" as="geometry"/>
                </mxCell>
                <mxCell id="gnsaFU84-UCshkjR6OA1-58" value="name" style="shape=partialRectangle;html=1;whiteSpace=wrap;connectable=0;strokeColor=inherit;overflow=hidden;fillColor=none;top=0;left=0;bottom=0;right=0;pointerEvents=1;fontSize=16;" parent="gnsaFU84-UCshkjR6OA1-57" vertex="1">
                    <mxGeometry width="140" height="40" as="geometry">
                        <mxRectangle width="140" height="40" as="alternateBounds"/>
                    </mxGeometry>
                </mxCell>
                <mxCell id="gnsaFU84-UCshkjR6OA1-59" value="" style="shape=partialRectangle;html=1;whiteSpace=wrap;connectable=0;strokeColor=inherit;overflow=hidden;fillColor=none;top=0;left=0;bottom=0;right=0;pointerEvents=1;fontSize=16;" parent="gnsaFU84-UCshkjR6OA1-57" vertex="1">
                    <mxGeometry x="140" width="20" height="40" as="geometry">
                        <mxRectangle width="20" height="40" as="alternateBounds"/>
                    </mxGeometry>
                </mxCell>
                <mxCell id="gnsaFU84-UCshkjR6OA1-60" value="" style="shape=partialRectangle;html=1;whiteSpace=wrap;connectable=0;strokeColor=inherit;overflow=hidden;fillColor=none;top=0;left=0;bottom=0;right=0;pointerEvents=1;fontSize=16;" parent="gnsaFU84-UCshkjR6OA1-57" vertex="1">
                    <mxGeometry x="160" width="20" height="40" as="geometry">
                        <mxRectangle width="20" height="40" as="alternateBounds"/>
                    </mxGeometry>
                </mxCell>
                <mxCell id="gnsaFU84-UCshkjR6OA1-61" value="" style="shape=tableRow;horizontal=0;startSize=0;swimlaneHead=0;swimlaneBody=0;strokeColor=inherit;top=0;left=0;bottom=0;right=0;collapsible=0;dropTarget=0;fillColor=none;points=[[0,0.5],[1,0.5]];portConstraint=eastwest;fontSize=16;" parent="gnsaFU84-UCshkjR6OA1-52" vertex="1">
                    <mxGeometry y="110" width="180" height="40" as="geometry"/>
                </mxCell>
                <mxCell id="gnsaFU84-UCshkjR6OA1-62" value="&lt;span style=&quot;text-wrap-mode: nowrap;&quot;&gt;surname&lt;/span&gt;" style="shape=partialRectangle;html=1;whiteSpace=wrap;connectable=0;strokeColor=inherit;overflow=hidden;fillColor=none;top=0;left=0;bottom=0;right=0;pointerEvents=1;fontSize=16;" parent="gnsaFU84-UCshkjR6OA1-61" vertex="1">
                    <mxGeometry width="140" height="40" as="geometry">
                        <mxRectangle width="140" height="40" as="alternateBounds"/>
                    </mxGeometry>
                </mxCell>
                <mxCell id="gnsaFU84-UCshkjR6OA1-63" value="" style="shape=partialRectangle;html=1;whiteSpace=wrap;connectable=0;strokeColor=inherit;overflow=hidden;fillColor=none;top=0;left=0;bottom=0;right=0;pointerEvents=1;fontSize=16;" parent="gnsaFU84-UCshkjR6OA1-61" vertex="1">
                    <mxGeometry x="140" width="20" height="40" as="geometry">
                        <mxRectangle width="20" height="40" as="alternateBounds"/>
                    </mxGeometry>
                </mxCell>
                <mxCell id="gnsaFU84-UCshkjR6OA1-64" value="" style="shape=partialRectangle;html=1;whiteSpace=wrap;connectable=0;strokeColor=inherit;overflow=hidden;fillColor=none;top=0;left=0;bottom=0;right=0;pointerEvents=1;fontSize=16;" parent="gnsaFU84-UCshkjR6OA1-61" vertex="1">
                    <mxGeometry x="160" width="20" height="40" as="geometry">
                        <mxRectangle width="20" height="40" as="alternateBounds"/>
                    </mxGeometry>
                </mxCell>
                <mxCell id="gnsaFU84-UCshkjR6OA1-65" value="teacher_course" style="shape=table;startSize=30;container=1;collapsible=0;childLayout=tableLayout;strokeColor=default;fontSize=16;" parent="1" vertex="1">
                    <mxGeometry x="-480" y="770" width="180" height="150" as="geometry"/>
                </mxCell>
                <mxCell id="gnsaFU84-UCshkjR6OA1-66" value="" style="shape=tableRow;horizontal=0;startSize=0;swimlaneHead=0;swimlaneBody=0;strokeColor=inherit;top=0;left=0;bottom=0;right=0;collapsible=0;dropTarget=0;fillColor=none;points=[[0,0.5],[1,0.5]];portConstraint=eastwest;fontSize=16;" parent="gnsaFU84-UCshkjR6OA1-65" vertex="1">
                    <mxGeometry y="30" width="180" height="40" as="geometry"/>
                </mxCell>
                <mxCell id="gnsaFU84-UCshkjR6OA1-67" value="id" style="shape=partialRectangle;html=1;whiteSpace=wrap;connectable=0;strokeColor=inherit;overflow=hidden;fillColor=none;top=0;left=0;bottom=0;right=0;pointerEvents=1;fontSize=16;" parent="gnsaFU84-UCshkjR6OA1-66" vertex="1">
                    <mxGeometry width="140" height="40" as="geometry">
                        <mxRectangle width="140" height="40" as="alternateBounds"/>
                    </mxGeometry>
                </mxCell>
                <mxCell id="gnsaFU84-UCshkjR6OA1-68" value="" style="shape=partialRectangle;html=1;whiteSpace=wrap;connectable=0;strokeColor=inherit;overflow=hidden;fillColor=none;top=0;left=0;bottom=0;right=0;pointerEvents=1;fontSize=16;" parent="gnsaFU84-UCshkjR6OA1-66" vertex="1">
                    <mxGeometry x="140" width="20" height="40" as="geometry">
                        <mxRectangle width="20" height="40" as="alternateBounds"/>
                    </mxGeometry>
                </mxCell>
                <mxCell id="gnsaFU84-UCshkjR6OA1-69" value="" style="shape=partialRectangle;html=1;whiteSpace=wrap;connectable=0;strokeColor=inherit;overflow=hidden;fillColor=none;top=0;left=0;bottom=0;right=0;pointerEvents=1;fontSize=16;" parent="gnsaFU84-UCshkjR6OA1-66" vertex="1">
                    <mxGeometry x="160" width="20" height="40" as="geometry">
                        <mxRectangle width="20" height="40" as="alternateBounds"/>
                    </mxGeometry>
                </mxCell>
                <mxCell id="gnsaFU84-UCshkjR6OA1-70" value="" style="shape=tableRow;horizontal=0;startSize=0;swimlaneHead=0;swimlaneBody=0;strokeColor=inherit;top=0;left=0;bottom=0;right=0;collapsible=0;dropTarget=0;fillColor=none;points=[[0,0.5],[1,0.5]];portConstraint=eastwest;fontSize=16;" parent="gnsaFU84-UCshkjR6OA1-65" vertex="1">
                    <mxGeometry y="70" width="180" height="40" as="geometry"/>
                </mxCell>
                <mxCell id="gnsaFU84-UCshkjR6OA1-71" value="course_id" style="shape=partialRectangle;html=1;whiteSpace=wrap;connectable=0;strokeColor=inherit;overflow=hidden;fillColor=none;top=0;left=0;bottom=0;right=0;pointerEvents=1;fontSize=16;" parent="gnsaFU84-UCshkjR6OA1-70" vertex="1">
                    <mxGeometry width="140" height="40" as="geometry">
                        <mxRectangle width="140" height="40" as="alternateBounds"/>
                    </mxGeometry>
                </mxCell>
                <mxCell id="gnsaFU84-UCshkjR6OA1-72" value="" style="shape=partialRectangle;html=1;whiteSpace=wrap;connectable=0;strokeColor=inherit;overflow=hidden;fillColor=none;top=0;left=0;bottom=0;right=0;pointerEvents=1;fontSize=16;" parent="gnsaFU84-UCshkjR6OA1-70" vertex="1">
                    <mxGeometry x="140" width="20" height="40" as="geometry">
                        <mxRectangle width="20" height="40" as="alternateBounds"/>
                    </mxGeometry>
                </mxCell>
                <mxCell id="gnsaFU84-UCshkjR6OA1-73" value="" style="shape=partialRectangle;html=1;whiteSpace=wrap;connectable=0;strokeColor=inherit;overflow=hidden;fillColor=none;top=0;left=0;bottom=0;right=0;pointerEvents=1;fontSize=16;" parent="gnsaFU84-UCshkjR6OA1-70" vertex="1">
                    <mxGeometry x="160" width="20" height="40" as="geometry">
                        <mxRectangle width="20" height="40" as="alternateBounds"/>
                    </mxGeometry>
                </mxCell>
                <mxCell id="gnsaFU84-UCshkjR6OA1-74" value="" style="shape=tableRow;horizontal=0;startSize=0;swimlaneHead=0;swimlaneBody=0;strokeColor=inherit;top=0;left=0;bottom=0;right=0;collapsible=0;dropTarget=0;fillColor=none;points=[[0,0.5],[1,0.5]];portConstraint=eastwest;fontSize=16;" parent="gnsaFU84-UCshkjR6OA1-65" vertex="1">
                    <mxGeometry y="110" width="180" height="40" as="geometry"/>
                </mxCell>
                <mxCell id="gnsaFU84-UCshkjR6OA1-75" value="teacher_id" style="shape=partialRectangle;html=1;whiteSpace=wrap;connectable=0;strokeColor=inherit;overflow=hidden;fillColor=none;top=0;left=0;bottom=0;right=0;pointerEvents=1;fontSize=16;" parent="gnsaFU84-UCshkjR6OA1-74" vertex="1">
                    <mxGeometry width="140" height="40" as="geometry">
                        <mxRectangle width="140" height="40" as="alternateBounds"/>
                    </mxGeometry>
                </mxCell>
                <mxCell id="gnsaFU84-UCshkjR6OA1-76" value="" style="shape=partialRectangle;html=1;whiteSpace=wrap;connectable=0;strokeColor=inherit;overflow=hidden;fillColor=none;top=0;left=0;bottom=0;right=0;pointerEvents=1;fontSize=16;" parent="gnsaFU84-UCshkjR6OA1-74" vertex="1">
                    <mxGeometry x="140" width="20" height="40" as="geometry">
                        <mxRectangle width="20" height="40" as="alternateBounds"/>
                    </mxGeometry>
                </mxCell>
                <mxCell id="gnsaFU84-UCshkjR6OA1-77" value="" style="shape=partialRectangle;html=1;whiteSpace=wrap;connectable=0;strokeColor=inherit;overflow=hidden;fillColor=none;top=0;left=0;bottom=0;right=0;pointerEvents=1;fontSize=16;" parent="gnsaFU84-UCshkjR6OA1-74" vertex="1">
                    <mxGeometry x="160" width="20" height="40" as="geometry">
                        <mxRectangle width="20" height="40" as="alternateBounds"/>
                    </mxGeometry>
                </mxCell>
                <mxCell id="gnsaFU84-UCshkjR6OA1-88" style="edgeStyle=orthogonalEdgeStyle;rounded=0;orthogonalLoop=1;jettySize=auto;html=1;exitX=0;exitY=0.5;exitDx=0;exitDy=0;entryX=0.5;entryY=0;entryDx=0;entryDy=0;fillColor=#fad7ac;strokeColor=light-dark(#38EAEC,#1D93C7);dashed=1;" parent="1" source="gnsaFU84-UCshkjR6OA1-78" target="gnsaFU84-UCshkjR6OA1-65" edge="1">
                    <mxGeometry relative="1" as="geometry">
                        <Array as="points">
                            <mxPoint x="-170" y="920"/>
                            <mxPoint x="-170" y="700"/>
                            <mxPoint x="-390" y="700"/>
                        </Array>
                    </mxGeometry>
                </mxCell>
                <mxCell id="gnsaFU84-UCshkjR6OA1-94" value="&lt;font style=&quot;font-size: 20px;&quot;&gt;pivot&lt;/font&gt;" style="edgeLabel;html=1;align=center;verticalAlign=middle;resizable=0;points=[];" parent="gnsaFU84-UCshkjR6OA1-88" connectable="0" vertex="1">
                    <mxGeometry x="0.2711" y="-1" relative="1" as="geometry">
                        <mxPoint as="offset"/>
                    </mxGeometry>
                </mxCell>
                <mxCell id="gnsaFU84-UCshkjR6OA1-89" style="edgeStyle=orthogonalEdgeStyle;rounded=0;orthogonalLoop=1;jettySize=auto;html=1;exitX=0.5;exitY=1;exitDx=0;exitDy=0;entryX=0;entryY=0.5;entryDx=0;entryDy=0;fillColor=#fad7ac;strokeColor=light-dark(#0000FF,#0000FF);dashed=1;" parent="1" source="gnsaFU84-UCshkjR6OA1-78" target="gnsaFU84-UCshkjR6OA1-53" edge="1">
                    <mxGeometry relative="1" as="geometry"/>
                </mxCell>
                <mxCell id="gnsaFU84-UCshkjR6OA1-91" value="&lt;font style=&quot;font-size: 24px;&quot;&gt;N&lt;/font&gt;" style="edgeLabel;html=1;align=center;verticalAlign=middle;resizable=0;points=[];" parent="gnsaFU84-UCshkjR6OA1-89" connectable="0" vertex="1">
                    <mxGeometry x="0.2615" y="3" relative="1" as="geometry">
                        <mxPoint as="offset"/>
                    </mxGeometry>
                </mxCell>
                <mxCell id="gnsaFU84-UCshkjR6OA1-90" style="edgeStyle=orthogonalEdgeStyle;rounded=0;orthogonalLoop=1;jettySize=auto;html=1;exitX=0.5;exitY=0;exitDx=0;exitDy=0;entryX=0;entryY=0.5;entryDx=0;entryDy=0;dashed=1;fillColor=#fad7ac;strokeColor=light-dark(#00FF00,#00FF00);" parent="1" source="gnsaFU84-UCshkjR6OA1-78" target="gnsaFU84-UCshkjR6OA1-32" edge="1">
                    <mxGeometry relative="1" as="geometry"/>
                </mxCell>
                <mxCell id="gnsaFU84-UCshkjR6OA1-93" value="&lt;font style=&quot;font-size: 20px;&quot;&gt;N&lt;/font&gt;" style="edgeLabel;html=1;align=center;verticalAlign=middle;resizable=0;points=[];" parent="gnsaFU84-UCshkjR6OA1-90" connectable="0" vertex="1">
                    <mxGeometry x="0.708" relative="1" as="geometry">
                        <mxPoint as="offset"/>
                    </mxGeometry>
                </mxCell>
                <mxCell id="gnsaFU84-UCshkjR6OA1-78" value="" style="rhombus;whiteSpace=wrap;html=1;" parent="1" vertex="1">
                    <mxGeometry x="-50" y="870" width="80" height="80" as="geometry"/>
                </mxCell>
                <mxCell id="gnsaFU84-UCshkjR6OA1-95" value="students" style="shape=table;startSize=30;container=1;collapsible=0;childLayout=tableLayout;strokeColor=default;fontSize=16;" parent="1" vertex="1">
                    <mxGeometry x="480" y="410" width="190" height="190" as="geometry"/>
                </mxCell>
                <mxCell id="gnsaFU84-UCshkjR6OA1-96" value="" style="shape=tableRow;horizontal=0;startSize=0;swimlaneHead=0;swimlaneBody=0;strokeColor=inherit;top=0;left=0;bottom=0;right=0;collapsible=0;dropTarget=0;fillColor=none;points=[[0,0.5],[1,0.5]];portConstraint=eastwest;fontSize=16;" parent="gnsaFU84-UCshkjR6OA1-95" vertex="1">
                    <mxGeometry y="30" width="190" height="40" as="geometry"/>
                </mxCell>
                <mxCell id="gnsaFU84-UCshkjR6OA1-97" value="id" style="shape=partialRectangle;html=1;whiteSpace=wrap;connectable=0;strokeColor=inherit;overflow=hidden;fillColor=none;top=0;left=0;bottom=0;right=0;pointerEvents=1;fontSize=16;" parent="gnsaFU84-UCshkjR6OA1-96" vertex="1">
                    <mxGeometry width="148" height="40" as="geometry">
                        <mxRectangle width="148" height="40" as="alternateBounds"/>
                    </mxGeometry>
                </mxCell>
                <mxCell id="gnsaFU84-UCshkjR6OA1-98" value="" style="shape=partialRectangle;html=1;whiteSpace=wrap;connectable=0;strokeColor=inherit;overflow=hidden;fillColor=none;top=0;left=0;bottom=0;right=0;pointerEvents=1;fontSize=16;" parent="gnsaFU84-UCshkjR6OA1-96" vertex="1">
                    <mxGeometry x="148" width="21" height="40" as="geometry">
                        <mxRectangle width="21" height="40" as="alternateBounds"/>
                    </mxGeometry>
                </mxCell>
                <mxCell id="gnsaFU84-UCshkjR6OA1-99" value="" style="shape=partialRectangle;html=1;whiteSpace=wrap;connectable=0;strokeColor=inherit;overflow=hidden;fillColor=none;top=0;left=0;bottom=0;right=0;pointerEvents=1;fontSize=16;" parent="gnsaFU84-UCshkjR6OA1-96" vertex="1">
                    <mxGeometry x="169" width="21" height="40" as="geometry">
                        <mxRectangle width="21" height="40" as="alternateBounds"/>
                    </mxGeometry>
                </mxCell>
                <mxCell id="gnsaFU84-UCshkjR6OA1-100" value="" style="shape=tableRow;horizontal=0;startSize=0;swimlaneHead=0;swimlaneBody=0;strokeColor=inherit;top=0;left=0;bottom=0;right=0;collapsible=0;dropTarget=0;fillColor=none;points=[[0,0.5],[1,0.5]];portConstraint=eastwest;fontSize=16;" parent="gnsaFU84-UCshkjR6OA1-95" vertex="1">
                    <mxGeometry y="70" width="190" height="40" as="geometry"/>
                </mxCell>
                <mxCell id="gnsaFU84-UCshkjR6OA1-101" value="name" style="shape=partialRectangle;html=1;whiteSpace=wrap;connectable=0;strokeColor=inherit;overflow=hidden;fillColor=none;top=0;left=0;bottom=0;right=0;pointerEvents=1;fontSize=16;" parent="gnsaFU84-UCshkjR6OA1-100" vertex="1">
                    <mxGeometry width="148" height="40" as="geometry">
                        <mxRectangle width="148" height="40" as="alternateBounds"/>
                    </mxGeometry>
                </mxCell>
                <mxCell id="gnsaFU84-UCshkjR6OA1-102" value="" style="shape=partialRectangle;html=1;whiteSpace=wrap;connectable=0;strokeColor=inherit;overflow=hidden;fillColor=none;top=0;left=0;bottom=0;right=0;pointerEvents=1;fontSize=16;" parent="gnsaFU84-UCshkjR6OA1-100" vertex="1">
                    <mxGeometry x="148" width="21" height="40" as="geometry">
                        <mxRectangle width="21" height="40" as="alternateBounds"/>
                    </mxGeometry>
                </mxCell>
                <mxCell id="gnsaFU84-UCshkjR6OA1-103" value="" style="shape=partialRectangle;html=1;whiteSpace=wrap;connectable=0;strokeColor=inherit;overflow=hidden;fillColor=none;top=0;left=0;bottom=0;right=0;pointerEvents=1;fontSize=16;" parent="gnsaFU84-UCshkjR6OA1-100" vertex="1">
                    <mxGeometry x="169" width="21" height="40" as="geometry">
                        <mxRectangle width="21" height="40" as="alternateBounds"/>
                    </mxGeometry>
                </mxCell>
                <mxCell id="gnsaFU84-UCshkjR6OA1-104" value="" style="shape=tableRow;horizontal=0;startSize=0;swimlaneHead=0;swimlaneBody=0;strokeColor=inherit;top=0;left=0;bottom=0;right=0;collapsible=0;dropTarget=0;fillColor=none;points=[[0,0.5],[1,0.5]];portConstraint=eastwest;fontSize=16;" parent="gnsaFU84-UCshkjR6OA1-95" vertex="1">
                    <mxGeometry y="110" width="190" height="40" as="geometry"/>
                </mxCell>
                <mxCell id="gnsaFU84-UCshkjR6OA1-105" value="surname" style="shape=partialRectangle;html=1;whiteSpace=wrap;connectable=0;strokeColor=inherit;overflow=hidden;fillColor=none;top=0;left=0;bottom=0;right=0;pointerEvents=1;fontSize=16;" parent="gnsaFU84-UCshkjR6OA1-104" vertex="1">
                    <mxGeometry width="148" height="40" as="geometry">
                        <mxRectangle width="148" height="40" as="alternateBounds"/>
                    </mxGeometry>
                </mxCell>
                <mxCell id="gnsaFU84-UCshkjR6OA1-106" value="" style="shape=partialRectangle;html=1;whiteSpace=wrap;connectable=0;strokeColor=inherit;overflow=hidden;fillColor=none;top=0;left=0;bottom=0;right=0;pointerEvents=1;fontSize=16;" parent="gnsaFU84-UCshkjR6OA1-104" vertex="1">
                    <mxGeometry x="148" width="21" height="40" as="geometry">
                        <mxRectangle width="21" height="40" as="alternateBounds"/>
                    </mxGeometry>
                </mxCell>
                <mxCell id="gnsaFU84-UCshkjR6OA1-107" value="" style="shape=partialRectangle;html=1;whiteSpace=wrap;connectable=0;strokeColor=inherit;overflow=hidden;fillColor=none;top=0;left=0;bottom=0;right=0;pointerEvents=1;fontSize=16;" parent="gnsaFU84-UCshkjR6OA1-104" vertex="1">
                    <mxGeometry x="169" width="21" height="40" as="geometry">
                        <mxRectangle width="21" height="40" as="alternateBounds"/>
                    </mxGeometry>
                </mxCell>
                <mxCell id="gnsaFU84-UCshkjR6OA1-108" style="shape=tableRow;horizontal=0;startSize=0;swimlaneHead=0;swimlaneBody=0;strokeColor=inherit;top=0;left=0;bottom=0;right=0;collapsible=0;dropTarget=0;fillColor=none;points=[[0,0.5],[1,0.5]];portConstraint=eastwest;fontSize=16;" parent="gnsaFU84-UCshkjR6OA1-95" vertex="1">
                    <mxGeometry y="150" width="190" height="40" as="geometry"/>
                </mxCell>
                <mxCell id="gnsaFU84-UCshkjR6OA1-109" value="&lt;span style=&quot;text-wrap-mode: nowrap;&quot;&gt;degree_courses_id&lt;/span&gt;" style="shape=partialRectangle;html=1;whiteSpace=wrap;connectable=0;strokeColor=inherit;overflow=hidden;fillColor=none;top=0;left=0;bottom=0;right=0;pointerEvents=1;fontSize=16;" parent="gnsaFU84-UCshkjR6OA1-108" vertex="1">
                    <mxGeometry width="148" height="40" as="geometry">
                        <mxRectangle width="148" height="40" as="alternateBounds"/>
                    </mxGeometry>
                </mxCell>
                <mxCell id="gnsaFU84-UCshkjR6OA1-110" style="shape=partialRectangle;html=1;whiteSpace=wrap;connectable=0;strokeColor=inherit;overflow=hidden;fillColor=none;top=0;left=0;bottom=0;right=0;pointerEvents=1;fontSize=16;" parent="gnsaFU84-UCshkjR6OA1-108" vertex="1">
                    <mxGeometry x="148" width="21" height="40" as="geometry">
                        <mxRectangle width="21" height="40" as="alternateBounds"/>
                    </mxGeometry>
                </mxCell>
                <mxCell id="gnsaFU84-UCshkjR6OA1-111" style="shape=partialRectangle;html=1;whiteSpace=wrap;connectable=0;strokeColor=inherit;overflow=hidden;fillColor=none;top=0;left=0;bottom=0;right=0;pointerEvents=1;fontSize=16;" parent="gnsaFU84-UCshkjR6OA1-108" vertex="1">
                    <mxGeometry x="169" width="21" height="40" as="geometry">
                        <mxRectangle width="21" height="40" as="alternateBounds"/>
                    </mxGeometry>
                </mxCell>
                <mxCell id="gnsaFU84-UCshkjR6OA1-124" style="edgeStyle=orthogonalEdgeStyle;rounded=0;orthogonalLoop=1;jettySize=auto;html=1;exitX=1;exitY=0.5;exitDx=0;exitDy=0;entryX=0;entryY=0.5;entryDx=0;entryDy=0;strokeColor=light-dark(#E7EE20,#FFFA21);" parent="1" source="gnsaFU84-UCshkjR6OA1-134" target="gnsaFU84-UCshkjR6OA1-108" edge="1">
                    <mxGeometry relative="1" as="geometry">
                        <Array as="points">
                            <mxPoint x="430" y="460"/>
                            <mxPoint x="390" y="460"/>
                            <mxPoint x="390" y="580"/>
                        </Array>
                    </mxGeometry>
                </mxCell>
                <mxCell id="gnsaFU84-UCshkjR6OA1-190" value="&lt;font style=&quot;font-size: 20px;&quot;&gt;N&lt;/font&gt;" style="edgeLabel;html=1;align=center;verticalAlign=middle;resizable=0;points=[];" parent="gnsaFU84-UCshkjR6OA1-124" connectable="0" vertex="1">
                    <mxGeometry x="0.7924" y="1" relative="1" as="geometry">
                        <mxPoint x="-1" as="offset"/>
                    </mxGeometry>
                </mxCell>
                <mxCell id="gnsaFU84-UCshkjR6OA1-129" value="" style="edgeStyle=orthogonalEdgeStyle;rounded=0;orthogonalLoop=1;jettySize=auto;html=1;exitX=0;exitY=0.5;exitDx=0;exitDy=0;entryX=0;entryY=0.5;entryDx=0;entryDy=0;strokeColor=light-dark(#FF0ADC,#27A266);" parent="1" source="gnsaFU84-UCshkjR6OA1-40" target="gnsaFU84-UCshkjR6OA1-128" edge="1">
                    <mxGeometry relative="1" as="geometry">
                        <mxPoint x="120" y="840" as="sourcePoint"/>
                        <mxPoint x="110" y="500" as="targetPoint"/>
                        <Array as="points">
                            <mxPoint x="30" y="840"/>
                        </Array>
                    </mxGeometry>
                </mxCell>
                <mxCell id="gnsaFU84-UCshkjR6OA1-131" value="&lt;font style=&quot;font-size: 23px;&quot;&gt;N&lt;/font&gt;" style="edgeLabel;html=1;align=center;verticalAlign=middle;resizable=0;points=[];" parent="gnsaFU84-UCshkjR6OA1-129" connectable="0" vertex="1">
                    <mxGeometry x="-0.8243" relative="1" as="geometry">
                        <mxPoint as="offset"/>
                    </mxGeometry>
                </mxCell>
                <mxCell id="gnsaFU84-UCshkjR6OA1-128" value="" style="rhombus;whiteSpace=wrap;html=1;" parent="1" vertex="1">
                    <mxGeometry x="-10" y="620" width="80" height="80" as="geometry"/>
                </mxCell>
                <mxCell id="gnsaFU84-UCshkjR6OA1-132" value="" style="rhombus;whiteSpace=wrap;html=1;" parent="1" vertex="1">
                    <mxGeometry x="-20" y="360" width="80" height="80" as="geometry"/>
                </mxCell>
                <mxCell id="gnsaFU84-UCshkjR6OA1-135" value="exam_calls" style="shape=table;startSize=40;container=1;collapsible=0;childLayout=tableLayout;strokeColor=default;fontSize=16;" parent="1" vertex="1">
                    <mxGeometry x="560" y="820" width="169" height="150" as="geometry"/>
                </mxCell>
                <mxCell id="gnsaFU84-UCshkjR6OA1-136" value="" style="shape=tableRow;horizontal=0;startSize=0;swimlaneHead=0;swimlaneBody=0;strokeColor=inherit;top=0;left=0;bottom=0;right=0;collapsible=0;dropTarget=0;fillColor=none;points=[[0,0.5],[1,0.5]];portConstraint=eastwest;fontSize=16;" parent="gnsaFU84-UCshkjR6OA1-135" vertex="1">
                    <mxGeometry y="40" width="169" height="37" as="geometry"/>
                </mxCell>
                <mxCell id="gnsaFU84-UCshkjR6OA1-137" value="id" style="shape=partialRectangle;html=1;whiteSpace=wrap;connectable=0;strokeColor=inherit;overflow=hidden;fillColor=none;top=0;left=0;bottom=0;right=0;pointerEvents=1;fontSize=16;" parent="gnsaFU84-UCshkjR6OA1-136" vertex="1">
                    <mxGeometry width="148" height="37" as="geometry">
                        <mxRectangle width="148" height="37" as="alternateBounds"/>
                    </mxGeometry>
                </mxCell>
                <mxCell id="gnsaFU84-UCshkjR6OA1-138" value="" style="shape=partialRectangle;html=1;whiteSpace=wrap;connectable=0;strokeColor=inherit;overflow=hidden;fillColor=none;top=0;left=0;bottom=0;right=0;pointerEvents=1;fontSize=16;" parent="gnsaFU84-UCshkjR6OA1-136" vertex="1">
                    <mxGeometry x="148" width="21" height="37" as="geometry">
                        <mxRectangle width="21" height="37" as="alternateBounds"/>
                    </mxGeometry>
                </mxCell>
                <mxCell id="gnsaFU84-UCshkjR6OA1-140" value="" style="shape=tableRow;horizontal=0;startSize=0;swimlaneHead=0;swimlaneBody=0;strokeColor=inherit;top=0;left=0;bottom=0;right=0;collapsible=0;dropTarget=0;fillColor=none;points=[[0,0.5],[1,0.5]];portConstraint=eastwest;fontSize=16;" parent="gnsaFU84-UCshkjR6OA1-135" vertex="1">
                    <mxGeometry y="77" width="169" height="36" as="geometry"/>
                </mxCell>
                <mxCell id="gnsaFU84-UCshkjR6OA1-141" value="course_id" style="shape=partialRectangle;html=1;whiteSpace=wrap;connectable=0;strokeColor=inherit;overflow=hidden;fillColor=none;top=0;left=0;bottom=0;right=0;pointerEvents=1;fontSize=16;" parent="gnsaFU84-UCshkjR6OA1-140" vertex="1">
                    <mxGeometry width="148" height="36" as="geometry">
                        <mxRectangle width="148" height="36" as="alternateBounds"/>
                    </mxGeometry>
                </mxCell>
                <mxCell id="gnsaFU84-UCshkjR6OA1-142" value="" style="shape=partialRectangle;html=1;whiteSpace=wrap;connectable=0;strokeColor=inherit;overflow=hidden;fillColor=none;top=0;left=0;bottom=0;right=0;pointerEvents=1;fontSize=16;" parent="gnsaFU84-UCshkjR6OA1-140" vertex="1">
                    <mxGeometry x="148" width="21" height="36" as="geometry">
                        <mxRectangle width="21" height="36" as="alternateBounds"/>
                    </mxGeometry>
                </mxCell>
                <mxCell id="gnsaFU84-UCshkjR6OA1-144" value="" style="shape=tableRow;horizontal=0;startSize=0;swimlaneHead=0;swimlaneBody=0;strokeColor=inherit;top=0;left=0;bottom=0;right=0;collapsible=0;dropTarget=0;fillColor=none;points=[[0,0.5],[1,0.5]];portConstraint=eastwest;fontSize=16;" parent="gnsaFU84-UCshkjR6OA1-135" vertex="1">
                    <mxGeometry y="113" width="169" height="37" as="geometry"/>
                </mxCell>
                <mxCell id="gnsaFU84-UCshkjR6OA1-145" value="data" style="shape=partialRectangle;html=1;whiteSpace=wrap;connectable=0;strokeColor=inherit;overflow=hidden;fillColor=none;top=0;left=0;bottom=0;right=0;pointerEvents=1;fontSize=16;" parent="gnsaFU84-UCshkjR6OA1-144" vertex="1">
                    <mxGeometry width="148" height="37" as="geometry">
                        <mxRectangle width="148" height="37" as="alternateBounds"/>
                    </mxGeometry>
                </mxCell>
                <mxCell id="gnsaFU84-UCshkjR6OA1-146" value="" style="shape=partialRectangle;html=1;whiteSpace=wrap;connectable=0;strokeColor=inherit;overflow=hidden;fillColor=none;top=0;left=0;bottom=0;right=0;pointerEvents=1;fontSize=16;" parent="gnsaFU84-UCshkjR6OA1-144" vertex="1">
                    <mxGeometry x="148" width="21" height="37" as="geometry">
                        <mxRectangle width="21" height="37" as="alternateBounds"/>
                    </mxGeometry>
                </mxCell>
                <mxCell id="gnsaFU84-UCshkjR6OA1-155" style="edgeStyle=orthogonalEdgeStyle;rounded=0;orthogonalLoop=1;jettySize=auto;html=1;exitX=1;exitY=0.5;exitDx=0;exitDy=0;entryX=0;entryY=0.5;entryDx=0;entryDy=0;strokeColor=light-dark(#FF8000,#FF8000);" parent="1" source="gnsaFU84-UCshkjR6OA1-156" target="gnsaFU84-UCshkjR6OA1-140" edge="1">
                    <mxGeometry relative="1" as="geometry"/>
                </mxCell>
                <mxCell id="gnsaFU84-UCshkjR6OA1-162" value="&lt;font style=&quot;font-size: 20px;&quot;&gt;1&lt;/font&gt;" style="edgeLabel;html=1;align=center;verticalAlign=middle;resizable=0;points=[];" parent="gnsaFU84-UCshkjR6OA1-155" connectable="0" vertex="1">
                    <mxGeometry x="0.2727" y="-1" relative="1" as="geometry">
                        <mxPoint as="offset"/>
                    </mxGeometry>
                </mxCell>
                <mxCell id="gnsaFU84-UCshkjR6OA1-157" value="" style="edgeStyle=orthogonalEdgeStyle;rounded=0;orthogonalLoop=1;jettySize=auto;html=1;exitX=1;exitY=0.5;exitDx=0;exitDy=0;entryX=0;entryY=0.5;entryDx=0;entryDy=0;strokeColor=light-dark(#FFA213,#FF8000);" parent="1" source="gnsaFU84-UCshkjR6OA1-32" target="gnsaFU84-UCshkjR6OA1-156" edge="1">
                    <mxGeometry relative="1" as="geometry">
                        <mxPoint x="300" y="760" as="sourcePoint"/>
                        <mxPoint x="560" y="915" as="targetPoint"/>
                    </mxGeometry>
                </mxCell>
                <mxCell id="gnsaFU84-UCshkjR6OA1-161" value="&lt;font style=&quot;font-size: 20px;&quot;&gt;N&lt;/font&gt;" style="edgeLabel;html=1;align=center;verticalAlign=middle;resizable=0;points=[];" parent="gnsaFU84-UCshkjR6OA1-157" connectable="0" vertex="1">
                    <mxGeometry x="-0.7778" y="3" relative="1" as="geometry">
                        <mxPoint as="offset"/>
                    </mxGeometry>
                </mxCell>
                <mxCell id="gnsaFU84-UCshkjR6OA1-156" value="" style="rhombus;whiteSpace=wrap;html=1;" parent="1" vertex="1">
                    <mxGeometry x="390" y="855" width="80" height="80" as="geometry"/>
                </mxCell>
                <mxCell id="gnsaFU84-UCshkjR6OA1-181" style="edgeStyle=orthogonalEdgeStyle;rounded=0;orthogonalLoop=1;jettySize=auto;html=1;exitX=0;exitY=0.5;exitDx=0;exitDy=0;entryX=1;entryY=0.5;entryDx=0;entryDy=0;strokeColor=light-dark(#E7EE20,#FFFA21);" parent="1" source="gnsaFU84-UCshkjR6OA1-134" target="gnsaFU84-UCshkjR6OA1-16" edge="1">
                    <mxGeometry relative="1" as="geometry"/>
                </mxCell>
                <mxCell id="gnsaFU84-UCshkjR6OA1-191" value="&lt;font style=&quot;font-size: 20px;&quot;&gt;1&lt;/font&gt;" style="edgeLabel;html=1;align=center;verticalAlign=middle;resizable=0;points=[];" parent="gnsaFU84-UCshkjR6OA1-181" connectable="0" vertex="1">
                    <mxGeometry x="0.4133" y="1" relative="1" as="geometry">
                        <mxPoint as="offset"/>
                    </mxGeometry>
                </mxCell>
                <mxCell id="gnsaFU84-UCshkjR6OA1-134" value="" style="rhombus;whiteSpace=wrap;html=1;" parent="1" vertex="1">
                    <mxGeometry x="350" y="610" width="80" height="80" as="geometry"/>
                </mxCell>
                <mxCell id="gnsaFU84-UCshkjR6OA1-164" value="STUDENT_EXAM_CALL" style="shape=table;startSize=30;container=1;collapsible=0;childLayout=tableLayout;strokeColor=default;fontSize=16;" parent="1" vertex="1">
                    <mxGeometry x="970" y="580" width="190" height="190" as="geometry"/>
                </mxCell>
                <mxCell id="gnsaFU84-UCshkjR6OA1-165" value="" style="shape=tableRow;horizontal=0;startSize=0;swimlaneHead=0;swimlaneBody=0;strokeColor=inherit;top=0;left=0;bottom=0;right=0;collapsible=0;dropTarget=0;fillColor=none;points=[[0,0.5],[1,0.5]];portConstraint=eastwest;fontSize=16;" parent="gnsaFU84-UCshkjR6OA1-164" vertex="1">
                    <mxGeometry y="30" width="190" height="40" as="geometry"/>
                </mxCell>
                <mxCell id="gnsaFU84-UCshkjR6OA1-166" value="id" style="shape=partialRectangle;html=1;whiteSpace=wrap;connectable=0;strokeColor=inherit;overflow=hidden;fillColor=none;top=0;left=0;bottom=0;right=0;pointerEvents=1;fontSize=16;" parent="gnsaFU84-UCshkjR6OA1-165" vertex="1">
                    <mxGeometry width="148" height="40" as="geometry">
                        <mxRectangle width="148" height="40" as="alternateBounds"/>
                    </mxGeometry>
                </mxCell>
                <mxCell id="gnsaFU84-UCshkjR6OA1-167" value="" style="shape=partialRectangle;html=1;whiteSpace=wrap;connectable=0;strokeColor=inherit;overflow=hidden;fillColor=none;top=0;left=0;bottom=0;right=0;pointerEvents=1;fontSize=16;" parent="gnsaFU84-UCshkjR6OA1-165" vertex="1">
                    <mxGeometry x="148" width="21" height="40" as="geometry">
                        <mxRectangle width="21" height="40" as="alternateBounds"/>
                    </mxGeometry>
                </mxCell>
                <mxCell id="gnsaFU84-UCshkjR6OA1-168" value="" style="shape=partialRectangle;html=1;whiteSpace=wrap;connectable=0;strokeColor=inherit;overflow=hidden;fillColor=none;top=0;left=0;bottom=0;right=0;pointerEvents=1;fontSize=16;" parent="gnsaFU84-UCshkjR6OA1-165" vertex="1">
                    <mxGeometry x="169" width="21" height="40" as="geometry">
                        <mxRectangle width="21" height="40" as="alternateBounds"/>
                    </mxGeometry>
                </mxCell>
                <mxCell id="gnsaFU84-UCshkjR6OA1-169" value="" style="shape=tableRow;horizontal=0;startSize=0;swimlaneHead=0;swimlaneBody=0;strokeColor=inherit;top=0;left=0;bottom=0;right=0;collapsible=0;dropTarget=0;fillColor=none;points=[[0,0.5],[1,0.5]];portConstraint=eastwest;fontSize=16;" parent="gnsaFU84-UCshkjR6OA1-164" vertex="1">
                    <mxGeometry y="70" width="190" height="40" as="geometry"/>
                </mxCell>
                <mxCell id="gnsaFU84-UCshkjR6OA1-170" value="student_id" style="shape=partialRectangle;html=1;whiteSpace=wrap;connectable=0;strokeColor=inherit;overflow=hidden;fillColor=none;top=0;left=0;bottom=0;right=0;pointerEvents=1;fontSize=16;" parent="gnsaFU84-UCshkjR6OA1-169" vertex="1">
                    <mxGeometry width="148" height="40" as="geometry">
                        <mxRectangle width="148" height="40" as="alternateBounds"/>
                    </mxGeometry>
                </mxCell>
                <mxCell id="gnsaFU84-UCshkjR6OA1-171" value="" style="shape=partialRectangle;html=1;whiteSpace=wrap;connectable=0;strokeColor=inherit;overflow=hidden;fillColor=none;top=0;left=0;bottom=0;right=0;pointerEvents=1;fontSize=16;" parent="gnsaFU84-UCshkjR6OA1-169" vertex="1">
                    <mxGeometry x="148" width="21" height="40" as="geometry">
                        <mxRectangle width="21" height="40" as="alternateBounds"/>
                    </mxGeometry>
                </mxCell>
                <mxCell id="gnsaFU84-UCshkjR6OA1-172" value="" style="shape=partialRectangle;html=1;whiteSpace=wrap;connectable=0;strokeColor=inherit;overflow=hidden;fillColor=none;top=0;left=0;bottom=0;right=0;pointerEvents=1;fontSize=16;" parent="gnsaFU84-UCshkjR6OA1-169" vertex="1">
                    <mxGeometry x="169" width="21" height="40" as="geometry">
                        <mxRectangle width="21" height="40" as="alternateBounds"/>
                    </mxGeometry>
                </mxCell>
                <mxCell id="gnsaFU84-UCshkjR6OA1-173" value="" style="shape=tableRow;horizontal=0;startSize=0;swimlaneHead=0;swimlaneBody=0;strokeColor=inherit;top=0;left=0;bottom=0;right=0;collapsible=0;dropTarget=0;fillColor=none;points=[[0,0.5],[1,0.5]];portConstraint=eastwest;fontSize=16;" parent="gnsaFU84-UCshkjR6OA1-164" vertex="1">
                    <mxGeometry y="110" width="190" height="40" as="geometry"/>
                </mxCell>
                <mxCell id="gnsaFU84-UCshkjR6OA1-174" value="exam_call_id" style="shape=partialRectangle;html=1;whiteSpace=wrap;connectable=0;strokeColor=inherit;overflow=hidden;fillColor=none;top=0;left=0;bottom=0;right=0;pointerEvents=1;fontSize=16;" parent="gnsaFU84-UCshkjR6OA1-173" vertex="1">
                    <mxGeometry width="148" height="40" as="geometry">
                        <mxRectangle width="148" height="40" as="alternateBounds"/>
                    </mxGeometry>
                </mxCell>
                <mxCell id="gnsaFU84-UCshkjR6OA1-175" value="" style="shape=partialRectangle;html=1;whiteSpace=wrap;connectable=0;strokeColor=inherit;overflow=hidden;fillColor=none;top=0;left=0;bottom=0;right=0;pointerEvents=1;fontSize=16;" parent="gnsaFU84-UCshkjR6OA1-173" vertex="1">
                    <mxGeometry x="148" width="21" height="40" as="geometry">
                        <mxRectangle width="21" height="40" as="alternateBounds"/>
                    </mxGeometry>
                </mxCell>
                <mxCell id="gnsaFU84-UCshkjR6OA1-176" value="" style="shape=partialRectangle;html=1;whiteSpace=wrap;connectable=0;strokeColor=inherit;overflow=hidden;fillColor=none;top=0;left=0;bottom=0;right=0;pointerEvents=1;fontSize=16;" parent="gnsaFU84-UCshkjR6OA1-173" vertex="1">
                    <mxGeometry x="169" width="21" height="40" as="geometry">
                        <mxRectangle width="21" height="40" as="alternateBounds"/>
                    </mxGeometry>
                </mxCell>
                <mxCell id="gnsaFU84-UCshkjR6OA1-177" style="shape=tableRow;horizontal=0;startSize=0;swimlaneHead=0;swimlaneBody=0;strokeColor=inherit;top=0;left=0;bottom=0;right=0;collapsible=0;dropTarget=0;fillColor=none;points=[[0,0.5],[1,0.5]];portConstraint=eastwest;fontSize=16;" parent="gnsaFU84-UCshkjR6OA1-164" vertex="1">
                    <mxGeometry y="150" width="190" height="40" as="geometry"/>
                </mxCell>
                <mxCell id="gnsaFU84-UCshkjR6OA1-178" value="&lt;span style=&quot;text-wrap-mode: nowrap;&quot;&gt;vote&lt;/span&gt;" style="shape=partialRectangle;html=1;whiteSpace=wrap;connectable=0;strokeColor=inherit;overflow=hidden;fillColor=none;top=0;left=0;bottom=0;right=0;pointerEvents=1;fontSize=16;" parent="gnsaFU84-UCshkjR6OA1-177" vertex="1">
                    <mxGeometry width="148" height="40" as="geometry">
                        <mxRectangle width="148" height="40" as="alternateBounds"/>
                    </mxGeometry>
                </mxCell>
                <mxCell id="gnsaFU84-UCshkjR6OA1-179" style="shape=partialRectangle;html=1;whiteSpace=wrap;connectable=0;strokeColor=inherit;overflow=hidden;fillColor=none;top=0;left=0;bottom=0;right=0;pointerEvents=1;fontSize=16;" parent="gnsaFU84-UCshkjR6OA1-177" vertex="1">
                    <mxGeometry x="148" width="21" height="40" as="geometry">
                        <mxRectangle width="21" height="40" as="alternateBounds"/>
                    </mxGeometry>
                </mxCell>
                <mxCell id="gnsaFU84-UCshkjR6OA1-180" style="shape=partialRectangle;html=1;whiteSpace=wrap;connectable=0;strokeColor=inherit;overflow=hidden;fillColor=none;top=0;left=0;bottom=0;right=0;pointerEvents=1;fontSize=16;" parent="gnsaFU84-UCshkjR6OA1-177" vertex="1">
                    <mxGeometry x="169" width="21" height="40" as="geometry">
                        <mxRectangle width="21" height="40" as="alternateBounds"/>
                    </mxGeometry>
                </mxCell>
                <mxCell id="gnsaFU84-UCshkjR6OA1-185" style="edgeStyle=orthogonalEdgeStyle;rounded=0;orthogonalLoop=1;jettySize=auto;html=1;exitX=1;exitY=0.5;exitDx=0;exitDy=0;entryX=0.5;entryY=0;entryDx=0;entryDy=0;strokeColor=light-dark(#FFA213,#FFA213);" parent="1" source="gnsaFU84-UCshkjR6OA1-182" target="gnsaFU84-UCshkjR6OA1-164" edge="1">
                    <mxGeometry relative="1" as="geometry">
                        <Array as="points">
                            <mxPoint x="910" y="690"/>
                            <mxPoint x="910" y="500"/>
                            <mxPoint x="1065" y="500"/>
                        </Array>
                    </mxGeometry>
                </mxCell>
                <mxCell id="gnsaFU84-UCshkjR6OA1-188" value="&lt;font style=&quot;font-size: 21px;&quot;&gt;PIVOT&lt;/font&gt;" style="edgeLabel;html=1;align=center;verticalAlign=middle;resizable=0;points=[];" parent="gnsaFU84-UCshkjR6OA1-185" connectable="0" vertex="1">
                    <mxGeometry x="0.3649" y="-6" relative="1" as="geometry">
                        <mxPoint x="-1" as="offset"/>
                    </mxGeometry>
                </mxCell>
                <mxCell id="gnsaFU84-UCshkjR6OA1-182" value="" style="rhombus;whiteSpace=wrap;html=1;" parent="1" vertex="1">
                    <mxGeometry x="770" y="650" width="80" height="80" as="geometry"/>
                </mxCell>
                <mxCell id="gnsaFU84-UCshkjR6OA1-183" style="edgeStyle=orthogonalEdgeStyle;rounded=0;orthogonalLoop=1;jettySize=auto;html=1;exitX=1;exitY=0.5;exitDx=0;exitDy=0;entryX=0.5;entryY=1;entryDx=0;entryDy=0;strokeColor=light-dark(#FF1F1F,#FF1F1F);" parent="1" source="gnsaFU84-UCshkjR6OA1-136" target="gnsaFU84-UCshkjR6OA1-182" edge="1">
                    <mxGeometry relative="1" as="geometry"/>
                </mxCell>
                <mxCell id="gnsaFU84-UCshkjR6OA1-186" value="&lt;font style=&quot;font-size: 20px;&quot;&gt;N&lt;/font&gt;" style="edgeLabel;html=1;align=center;verticalAlign=middle;resizable=0;points=[];" parent="gnsaFU84-UCshkjR6OA1-183" connectable="0" vertex="1">
                    <mxGeometry x="-0.6049" y="-1" relative="1" as="geometry">
                        <mxPoint as="offset"/>
                    </mxGeometry>
                </mxCell>
                <mxCell id="gnsaFU84-UCshkjR6OA1-184" style="edgeStyle=orthogonalEdgeStyle;rounded=0;orthogonalLoop=1;jettySize=auto;html=1;exitX=1;exitY=0.5;exitDx=0;exitDy=0;entryX=0.5;entryY=0;entryDx=0;entryDy=0;strokeColor=light-dark(#FFFA21,#FFFA21);" parent="1" source="gnsaFU84-UCshkjR6OA1-96" target="gnsaFU84-UCshkjR6OA1-182" edge="1">
                    <mxGeometry relative="1" as="geometry"/>
                </mxCell>
                <mxCell id="gnsaFU84-UCshkjR6OA1-187" value="&lt;font style=&quot;font-size: 20px;&quot;&gt;N&lt;/font&gt;" style="edgeLabel;html=1;align=center;verticalAlign=middle;resizable=0;points=[];" parent="gnsaFU84-UCshkjR6OA1-184" connectable="0" vertex="1">
                    <mxGeometry x="-0.5596" y="1" relative="1" as="geometry">
                        <mxPoint x="-1" as="offset"/>
                    </mxGeometry>
                </mxCell>
            </root>
        </mxGraphModel>
    </diagram>
</mxfile>